<svg width="20" height="13" viewBox="0 0 20 13" fill="none" xmlns="http://www.w3.org/2000/svg">
<path id="Vector" fill-rule="evenodd" clip-rule="evenodd" d="M20 6.57094C20 6.38151 19.9248 6.19984 19.7908 6.06589C19.6569 5.93195 19.4752 5.8567 19.2858 5.8567L2.43969 5.8567L6.93512 1.3627C7.06923 1.22858 7.14458 1.04668 7.14458 0.857016C7.14458 0.667348 7.06923 0.485449 6.93512 0.351334C6.801 0.217218 6.61911 0.141874 6.42944 0.141874C6.23977 0.141874 6.05787 0.217218 5.92376 0.351334L0.209835 6.06525C0.14332 6.1316 0.0905481 6.21042 0.0545412 6.29719C0.0185342 6.38397 0 6.47699 0 6.57094C0 6.66488 0.0185342 6.75791 0.0545412 6.84468C0.0905481 6.93145 0.14332 7.01027 0.209835 7.07662L5.92376 12.7905C5.99016 12.8569 6.069 12.9096 6.15576 12.9456C6.24253 12.9815 6.33552 13 6.42944 13C6.61911 13 6.801 12.9247 6.93512 12.7905C7.06923 12.6564 7.14458 12.4745 7.14458 12.2849C7.14458 12.0952 7.06923 11.9133 6.93512 11.7792L2.43969 7.28518L19.2858 7.28518C19.4752 7.28518 19.6569 7.20993 19.7908 7.07598C19.9248 6.94203 20 6.76037 20 6.57094Z" fill="#95D5B2"/>
</svg>
